# xmcd CD database file
#
# Track frame offsets:
#	182
#	37167
#	60232
#	82777
#	108847
#	134807
#	160542
#	185270
#	215062
#
# Disc length: 3118 seconds
#
# Revision: 4
# Processed by: cddbd v1.4PL0 Copyright (c) Steve Scherf et al.
# Submitted via: CDex 1.50beta10
#
DISCID=720c2c09
DTITLE=The Modern Jazz Quartet - For Ellington
DYEAR=1988
DGENRE=Jazz
TTITLE0=For Ellington
TTITLE1=Jack The Bear
TTITLE2=Prelude To A Kiss
TTITLE3=It Don't Mean A Thing
TTITLE4=Ko-Ko
TTITLE5=Maestro E.K.E.
TTITLE6=Sepia Panorama
TTITLE7=Rockin' In Rhythm
TTITLE8=Come Sunday
EXTD="Come Sunday" is not on the vinyl issue YEAR: 1988
EXTT0=
EXTT1=
EXTT2=
EXTT3=
EXTT4=
EXTT5=
EXTT6=
EXTT7=
EXTT8=
PLAYORDER=
